<?xml version="1.0" encoding="UTF-8" standalone="no"?>
<!-- Created with Inkscape (http://www.inkscape.org/) -->

<svg
   xmlns:svg="http://www.w3.org/2000/svg"
   xmlns="http://www.w3.org/2000/svg"
   version="1.1"
   width="236.16806"
   height="57.268311"
   id="svg20541">
  <defs
     id="defs20543" />
  <g
     transform="translate(-379.41597,-643.95845)"
     id="layer1">
    <g
       transform="matrix(1.25,0,0,-1.25,401.4035,645.71771)"
       id="g19205" />
    <g
       transform="matrix(1.25,0,0,-1.25,430.89101,645.71771)"
       id="g19209" />
    <g
       transform="matrix(1.25,0,0,-1.25,441.79975,651.98021)"
       id="g19213" />
    <g
       transform="matrix(1.25,0,0,-1.25,452.5435,646.90521)"
       id="g19217" />
    <g
       transform="matrix(1.25,0,0,-1.25,390.1835,652.20521)"
       id="g19221" />
    <g
       transform="matrix(3.9124625,0,0,-3.9124625,414.51088,672.03979)"
       id="g19225">
      <path
         d="M 0,0 C 1.723,-0.28 3.22,-0.72 3.811,-1.3 4.232,-1.71 4.193,-2.1 3.873,-2.55 3.079,-3.67 1.043,-4.56 -0.149,-4.69 -0.768,-4.75 -0.911,-4.4 -0.94,-3.98 -1.011,-2.93 -0.661,-1.45 0,0 m -1.191,-1.95 c -0.962,-2.32 -2.407,-5.13 -3.511,-5.51 l -0.657,0.69 c 1.559,0.1 3.186,3.42 3.672,4.5 l 0.496,0.32 m 0.834992,2.53 c -2.262,0.24 -4.486,0.94 -5.477,1.92 -0.464,0.46 -0.296,1.07 -0.018,1.5 1,1.58 3.627,2.93 5.781,3.16 0.691,0.08 1.127,-0.1 1.162,-0.87 0.069,-1.57 -0.391,-3.72 -1.448,-5.71 m -0.269,-0.48 c -1.292,-2.2 -3.34,-4.12 -6.237,-4.73 -1.61,-0.34 -2.112,0.79 -2.108,2.03 0.005,1.4 0.311,2.55 2.47,2.86 1.358,0.21 3.725,0.14 5.875,-0.16 m 50.157,4.72 0.133,0 c 0.089,0 0.17,-0.01 0.21,-0.03 0.09,-0.03 0.132,-0.11 0.132,-0.22 0,-0.08 -0.025,-0.14 -0.07,-0.19 -0.049,-0.04 -0.121,-0.06 -0.28,-0.06 l -0.125,0 0,0.5 z m -0.366,0.3 0,-1.86 0.366,0 0,0.78 c 0.021,0 0.04,-0.01 0.058,-0.02 0.067,-0.03 0.124,-0.12 0.308,-0.45 0.069,-0.13 0.102,-0.18 0.172,-0.31 l 0.44,0 c 0,0 -0.337,0.59 -0.443,0.72 -0.023,0.03 -0.041,0.05 -0.077,0.08 0.228,0.01 0.415,0.23 0.415,0.52 0,0.32 -0.219,0.54 -0.548,0.54 l -0.691,0 z m 1.852,-0.94 c 0,-0.74 -0.57,-1.33 -1.272,-1.33 -0.704,0 -1.269,0.59 -1.269,1.33 0,0.74 0.565,1.33 1.269,1.33 0.702,0 1.272,-0.59 1.272,-1.33 m 0.375,0 c 0,0.92 -0.744,1.66 -1.647,1.66 -0.905,0 -1.647,-0.74 -1.647,-1.66 0,-0.93 0.742,-1.66 1.647,-1.66 0.903,0 1.647,0.73 1.647,1.66 m -51.143,-3.65 c 0.805,1.58 1.966,3.06 3.344,3.85 0.892,0.51 1.875,0.27 2.122,-0.97 0.189,-0.95 0.159,-1.67 -0.475,-2.09 -1.075,-0.7 -3.008,-0.93 -4.991,-0.79 m 40.687,0.23 c 0,-1.22 0.986,-2.2 2.201,-2.2 1.216,0 2.2,0.98 2.2,2.2 0,1.21 -0.984,2.2 -2.2,2.2 -1.215,0 -2.201,-0.99 -2.201,-2.2 m -2.879,0 c 0,2.8 2.275,5.08 5.08,5.08 2.805,0 5.079,-2.28 5.079,-5.08 0,-2.81 -2.274,-5.08 -5.079,-5.08 -2.805,0 -5.08,2.27 -5.08,5.08 m -20.552,0 c 0,-1.22 0.985,-2.2 2.201,-2.2 1.216,0 2.201,0.98 2.201,2.2 0,1.21 -0.985,2.2 -2.201,2.2 -1.216,0 -2.201,-0.99 -2.201,-2.2 m -2.878,0 c 0,2.8 2.275,5.08 5.079,5.08 2.804,0 5.079,-2.28 5.079,-5.08 0,-2.81 -2.275,-5.08 -5.079,-5.08 -2.804,0 -5.079,2.27 -5.079,5.08 M 32.21,5.77 l 6.613,0 -0.542,-2.72 -1.614,0 0,-7.19 -2.91,0 0,7.19 -2.089,0 m -23.048008,2.72 2.94,0 0,-7.15 3.265,0 -0.542,-2.76 -5.663,0 0,9.91 z m 16.549,0 6.612,0 -0.541,-2.72 -1.614,0 0,-7.19 -2.91,0 0,7.19 -2.089,0"
         id="path19227"
         style="fill:#e60012;fill-opacity:1;fill-rule:nonzero;stroke:none" />
    </g>
  </g>
</svg>
